Coordinates
version=1
nRows=14
nColumns=38
inDegrees=no

Units are S.I. units (second, meters, Newtons, ...)
If the header above contains a line with 'inDegrees', this indicates whether rotational values are in degrees (yes) or radians (no).

endheader
time	pelvis_tilt	pelvis_list	pelvis_rotation	pelvis_tx	pelvis_ty	pelvis_tz	hip_flexion_r	hip_adduction_r	hip_rotation_r	knee_angle_r	ankle_angle_r	subtalar_angle_r	mtp_angle_r	hip_flexion_l	hip_adduction_l	hip_rotation_l	knee_angle_l	ankle_angle_l	subtalar_angle_l	mtp_angle_l	lumbar_extension	lumbar_bending	lumbar_rotation	arm_flex_r	arm_add_r	arm_rot_r	elbow_flex_r	pro_sup_r	wrist_flex_r	wrist_dev_r	arm_flex_l	arm_add_l	arm_rot_l	elbow_flex_l	pro_sup_l	wrist_flex_l	wrist_dev_l
1.31	-0.882585	1.30311	2.49527	0.602676	1.08334	1.00886	0.590134	-0.206685	0.132658	1.07273	-0.0445749	0	0	0.538371	0.0110321	-0.293005	1.18836	-0.246098	0	0	-0.00748428	-0.233485	0.216982	0.0509594	-0.496941	1.05159	0.782806	0.389793	0	0	0.13438	-0.463069	0.848797	0.63672	0.60409	0	0
1.32	-0.887854	1.30038	2.49899	0.601891	1.09234	1.00943	0.578219	-0.21448	0.122744	1.0679	-0.0422491	0	0	0.552871	0.015392	-0.296543	1.15393	-0.244857	0	0	-0.00998461	-0.236598	0.222876	0.0457189	-0.497338	1.03596	0.784669	0.404164	0	0	0.143801	-0.461349	0.859454	0.634117	0.600406	0	0
1.33	-0.894513	1.29812	2.50446	0.600968	1.10133	1.00995	0.566769	-0.222601	0.114112	1.0659	-0.0373721	0	0	0.564935	0.0201559	-0.300347	1.11718	-0.24314	0	0	-0.0118261	-0.238972	0.220329	0.0535992	-0.498171	1.04632	0.783858	0.398416	0	0	0.142061	-0.46013	0.848061	0.634327	0.610637	0	0
1.34	-0.902485	1.29622	2.51056	0.60011	1.11025	1.01031	0.556247	-0.229961	0.108221	1.06643	-0.0328083	0	0	0.57513	0.024197	-0.306611	1.08027	-0.239137	0	0	-0.010716	-0.240442	0.217194	0.0682746	-0.499797	1.07562	0.781354	0.371002	0	0	0.141857	-0.460846	0.851	0.633658	0.601301	0	0
1.35	-0.910027	1.29426	2.51566	0.599286	1.11903	1.01052	0.546113	-0.236984	0.10238	1.06597	-0.029901	0	0	0.584151	0.0284379	-0.314009	1.04278	-0.234162	0	0	-0.013	-0.242542	0.218608	0.0720249	-0.501341	1.07796	0.782285	0.370167	0	0	0.145259	-0.459869	0.852235	0.633064	0.6014	0	0
1.36	-0.917089	1.29222	2.52017	0.598475	1.12774	1.01057	0.536645	-0.24338	0.0975719	1.06587	-0.0273805	0	0	0.591872	0.0332884	-0.321639	1.00402	-0.228272	0	0	-0.0153364	-0.244743	0.219706	0.0754792	-0.50245	1.07904	0.782741	0.369693	0	0	0.148377	-0.458816	0.853249	0.631962	0.601157	0	0
1.37	-0.923211	1.28989	2.52342	0.597661	1.13637	1.01042	0.529129	-0.249503	0.0931861	1.06922	-0.0245772	0	0	0.598938	0.039742	-0.326695	0.963708	-0.222075	0	0	-0.0175092	-0.247142	0.220749	0.0784471	-0.503248	1.07835	0.782886	0.369079	0	0	0.151093	-0.45769	0.853655	0.630657	0.600584	0	0
1.38	-0.92835	1.28719	2.52529	0.596853	1.14492	1.01001	0.521114	-0.255611	0.089506	1.06783	-0.0228909	0	0	0.605367	0.0474711	-0.329055	0.921587	-0.217048	0	0	-0.0191918	-0.249803	0.222211	0.0808737	-0.504	1.07687	0.783383	0.37025	0	0	0.153581	-0.456665	0.853937	0.629491	0.599854	0	0
1.39	-0.933521	1.28464	2.52682	0.596014	1.15337	1.00951	0.513951	-0.26109	0.0875334	1.06883	-0.0200404	0	0	0.609892	0.0564429	-0.327505	0.875787	-0.210391	0	0	-0.0207633	-0.25228	0.222989	0.0852814	-0.505176	1.07959	0.784021	0.368084	0	0	0.154984	-0.455721	0.85269	0.628625	0.598761	0	0
1.4	-0.938455	1.28225	2.52769	0.595171	1.16177	1.00888	0.507302	-0.265991	0.0873038	1.07062	-0.0169015	0	0	0.612552	0.0664482	-0.321385	0.825748	-0.204588	0	0	-0.0221829	-0.254511	0.223765	0.0895631	-0.507215	1.08149	0.785903	0.367918	0	0	0.155757	-0.455123	0.850545	0.628805	0.597489	0	0
1.41	-0.937293	1.27978	2.52405	0.5941	1.17028	1.00799	0.501596	-0.270964	0.084847	1.07266	-0.0139153	0	0	0.615533	0.0774721	-0.308439	0.772618	-0.202	0	0	-0.0217496	-0.255754	0.223562	0.0921755	-0.509279	1.0813	0.788355	0.368919	0	0	0.155777	-0.454956	0.848493	0.629771	0.596392	0	0
1.42	-0.930419	1.27728	2.51614	0.592832	1.17888	1.00681	0.496599	-0.275892	0.0800694	1.07457	-0.0108905	0	0	0.618927	0.088759	-0.2896	0.717237	-0.203742	0	0	-0.0196444	-0.255893	0.222333	0.0932193	-0.51127	1.07918	0.791275	0.371439	0	0	0.154958	-0.455261	0.846402	0.63184	0.594624	0	0
1.43	-0.921002	1.275	2.50537	0.591554	1.18744	1.00544	0.492247	-0.279512	0.0767333	1.07671	-0.00754359	0	0	0.622029	0.098786	-0.26825	0.661024	-0.210552	0	0	-0.0198266	-0.255865	0.22555	0.0828915	-0.513584	1.05077	0.797943	0.398742	0	0	0.157033	-0.454123	0.842878	0.634784	0.601416	0	0
1.44	-0.910642	1.27315	2.49342	0.590254	1.19608	1.00394	0.487856	-0.282463	0.0738642	1.07922	-0.0036292	0	0	0.624417	0.10683	-0.246999	0.605847	-0.219524	0	0	-0.0157424	-0.254301	0.225613	0.0828407	-0.515906	1.04866	0.800698	0.399539	0	0	0.156622	-0.455007	0.846634	0.637268	0.593886	0	0
